# xmcd
#
# Track frame offsets:
#	150
#	16955
#	27834
#	40037
#	55393
#	66693
#	78743
#	94465
#	110099
#	122357
#	133134
#	143161
#	151630
#
# Disc length: 2190 seconds
#
# Revision: 1
# Processed by: cddbd v1.5.2PL0 Copyright (c) Steve Scherf et al.
# Submitted via: audiograbber 1.83.01
#
DISCID=b4088c0d
DTITLE=Ike and Tina Turner - Outta Season
DYEAR=1968
DGENRE=Blues
TTITLE0=I've Been Loving You Too Long
TTITLE1=Mean Old World
TTITLE2=3 O'Clock In The Morning Blues
TTITLE3=Five Long Years
TTITLE4=Dust My Broom
TTITLE5=Grumbling
TTITLE6=I Am A Motherless Child
TTITLE7=Crazy 'Bout You Baby
TTITLE8=Reconsider Baby
TTITLE9=Honest I Do
TTITLE10=Please Love Me
TTITLE11=My Babe
TTITLE12=Rock Me Baby
EXTD=
EXTT0=
EXTT1=
EXTT2=
EXTT3=
EXTT4=
EXTT5=
EXTT6=
EXTT7=
EXTT8=
EXTT9=
EXTT10=
EXTT11=
EXTT12=
PLAYORDER=
